<svg width="19" height="17" viewBox="0 0 19 17" fill="none" xmlns="http://www.w3.org/2000/svg">
<path d="M13.8182 0C12.0045 0 10.4275 0.856217 9.5 2.29108C8.57245 0.856217 6.99545 0 5.18182 0C3.80801 0.00167501 2.49092 0.573755 1.51949 1.59074C0.548054 2.60773 0.00159998 3.98658 0 5.42482C0 8.0649 1.57182 10.8126 4.67227 13.5901C6.093 14.8575 7.62765 15.9778 9.25473 16.9354C9.33013 16.9778 9.4144 17 9.5 17C9.5856 17 9.66987 16.9778 9.74527 16.9354C11.3723 15.9778 12.907 14.8575 14.3277 13.5901C17.4282 10.8126 19 8.0649 19 5.42482C18.9984 3.98658 18.4519 2.60773 17.4805 1.59074C16.5091 0.573755 15.192 0.00167501 13.8182 0ZM9.5 15.8323C8.08277 14.9761 1.03636 10.4627 1.03636 5.42482C1.03751 4.27419 1.47463 3.17102 2.2518 2.3574C3.02898 1.54378 4.08273 1.08616 5.18182 1.08496C6.93327 1.08496 8.40405 2.06414 9.02068 3.64096C9.05972 3.74045 9.12613 3.82556 9.21148 3.88545C9.29683 3.94534 9.39725 3.97731 9.5 3.97731C9.60275 3.97731 9.70317 3.94534 9.78852 3.88545C9.87387 3.82556 9.94028 3.74045 9.97932 3.64096C10.596 2.06414 12.0667 1.08496 13.8182 1.08496C14.9173 1.08616 15.971 1.54378 16.7482 2.3574C17.5254 3.17102 17.9625 4.27419 17.9636 5.42482C17.9636 10.4627 10.9172 14.9761 9.5 15.8323Z" fill="white"/>
<path d="M19 5.49088C19 11.6903 10.1964 16.7082 9.82147 16.9154C9.72266 16.9709 9.6122 17 9.5 17C9.38779 17 9.27734 16.9709 9.17853 16.9154C8.80362 16.7082 0 11.6903 0 5.49088C0.00157152 4.03511 0.55614 2.63944 1.54204 1.61005C2.52794 0.580669 3.86466 0.00164083 5.25893 0C7.01049 0 8.54406 0.786435 9.5 2.11576C10.4559 0.786435 11.9895 0 13.7411 0C15.1353 0.00164083 16.4721 0.580669 17.458 1.61005C18.4439 2.63944 18.9984 4.03511 19 5.49088Z" fill="white"/>
</svg>
