<svg width="20" height="18" viewBox="0 0 20 18" fill="none" xmlns="http://www.w3.org/2000/svg">
<g id="Component 3">
<path id="Vector" d="M14.5455 0C12.6364 0 10.9764 0.906583 10 2.42585C9.02364 0.906583 7.36364 0 5.45455 0C4.00843 0.00177354 2.62202 0.607505 1.59946 1.68432C0.576899 2.76113 0.00168419 4.22109 0 5.74393C0 8.5393 1.65455 11.4486 4.91818 14.3895C6.41369 15.7314 8.02911 16.9177 9.74182 17.9316C9.82119 17.9765 9.90989 18 10 18C10.0901 18 10.1788 17.9765 10.2582 17.9316C11.9709 16.9177 13.5863 15.7314 15.0818 14.3895C18.3455 11.4486 20 8.5393 20 5.74393C19.9983 4.22109 19.4231 2.76113 18.4005 1.68432C17.378 0.607505 15.9916 0.00177354 14.5455 0ZM10 16.7636C8.50818 15.8571 1.09091 11.0781 1.09091 5.74393C1.09211 4.52561 1.55224 3.35755 2.37032 2.49607C3.1884 1.63459 4.29761 1.15005 5.45455 1.14879C7.29818 1.14879 8.84636 2.18556 9.49545 3.85513C9.53655 3.96048 9.60646 4.05059 9.6963 4.114C9.78613 4.17742 9.89185 4.21127 10 4.21127C10.1082 4.21127 10.2139 4.17742 10.3037 4.114C10.3935 4.05059 10.4635 3.96048 10.5045 3.85513C11.1536 2.18556 12.7018 1.14879 14.5455 1.14879C15.7024 1.15005 16.8116 1.63459 17.6297 2.49607C18.4478 3.35755 18.9079 4.52561 18.9091 5.74393C18.9091 11.0781 11.4918 15.8571 10 16.7636Z" fill="#F41919"/>
</g>
</svg>
