<svg width="13" height="13" viewBox="0 0 13 13" fill="none" xmlns="http://www.w3.org/2000/svg">
<path fill-rule="evenodd" clip-rule="evenodd" d="M3.29791 0.383301C1.47653 0.383301 0 1.85395 0 3.66727C0 3.71396 0.0112321 3.75671 0.0132113 3.80275C0.0125483 3.8284 0.00594758 3.84683 0.00594758 3.87313C0.00594758 7.32218 4.93893 11.846 6.39828 12.3577L6.50001 12.3833L6.60176 12.3577C8.06111 11.846 12.9941 7.32218 12.9941 3.87313C12.9941 3.84683 12.9875 3.8284 12.9868 3.80275C12.9888 3.75671 13 3.71396 13 3.66727C13 1.85395 11.5236 0.383301 9.70215 0.383301C8.19918 0.383301 7.1006 2.11576 6.50001 2.11576C5.89943 2.11576 4.80086 0.383301 3.29791 0.383301Z" fill="#7C8484"/>
</svg>
