<svg width="16" height="16" viewBox="0 0 16 16" fill="none" xmlns="http://www.w3.org/2000/svg">
<g clip-path="url(#clip0_42_246)">
<path fill-rule="evenodd" clip-rule="evenodd" d="M4.71547 1.75C2.84739 1.75 1.33301 3.28193 1.33301 5.1708C1.33301 5.21944 1.34453 5.26397 1.34656 5.31193C1.34588 5.33865 1.33911 5.35784 1.33911 5.38524C1.33911 8.978 6.39856 13.6903 7.89533 14.2233L7.99967 14.25L8.10402 14.2233C9.60079 13.6903 14.6602 8.978 14.6602 5.38524C14.6602 5.35784 14.6535 5.33865 14.6528 5.31193C14.6548 5.26397 14.6663 5.21944 14.6663 5.1708C14.6663 3.28193 13.152 1.75 11.2839 1.75C9.7424 1.75 8.61565 3.55464 7.99967 3.55464C7.38369 3.55464 6.25695 1.75 4.71547 1.75Z" fill="#7C8484"/>
</g>
<defs>
<clipPath id="clip0_42_246">
<rect width="16" height="16" fill="white"/>
</clipPath>
</defs>
</svg>
