<svg width="21" height="20" viewBox="0 0 21 20" fill="none" xmlns="http://www.w3.org/2000/svg">
<g clip-path="url(#clip0_286_2185)">
<path d="M20.5 6.81387C20.5 13.3779 11.233 18.691 10.8384 18.9105C10.7344 18.9692 10.6181 19 10.5 19C10.3819 19 10.2656 18.9692 10.1616 18.9105C9.76696 18.691 0.5 13.3779 0.5 6.81387C0.501654 5.27247 1.08541 3.7947 2.1232 2.70476C3.16099 1.61483 4.56806 1.00174 6.03571 1C7.87946 1 9.49375 1.8327 10.5 3.24022C11.5063 1.8327 13.1205 1 14.9643 1C16.4319 1.00174 17.839 1.61483 18.8768 2.70476C19.9146 3.7947 20.4983 5.27247 20.5 6.81387Z" fill="#F41919"/>
</g>
<defs>
<clipPath id="clip0_286_2185">
<rect width="20" height="20" fill="white" transform="translate(0.5)"/>
</clipPath>
</defs>
</svg>
