<svg width="21" height="20" viewBox="0 0 21 20" fill="none" xmlns="http://www.w3.org/2000/svg">
<g clip-path="url(#clip0_286_2210)">
<path d="M15.0455 1C13.1364 1 11.4764 1.90658 10.5 3.42585C9.52364 1.90658 7.86364 1 5.95455 1C4.50843 1.00177 3.12202 1.60751 2.09946 2.68432C1.0769 3.76113 0.501684 5.22109 0.5 6.74393C0.5 9.5393 2.15455 12.4486 5.41818 15.3895C6.91369 16.7314 8.52911 17.9177 10.2418 18.9316C10.3212 18.9765 10.4099 19 10.5 19C10.5901 19 10.6788 18.9765 10.7582 18.9316C12.4709 17.9177 14.0863 16.7314 15.5818 15.3895C18.8455 12.4486 20.5 9.5393 20.5 6.74393C20.4983 5.22109 19.9231 3.76113 18.9005 2.68432C17.878 1.60751 16.4916 1.00177 15.0455 1ZM10.5 17.7636C9.00818 16.8571 1.59091 12.0781 1.59091 6.74393C1.59211 5.52561 2.05224 4.35755 2.87032 3.49607C3.6884 2.63459 4.79761 2.15005 5.95455 2.14879C7.79818 2.14879 9.34636 3.18556 9.99545 4.85513C10.0365 4.96048 10.1065 5.05059 10.1963 5.114C10.2861 5.17742 10.3918 5.21127 10.5 5.21127C10.6082 5.21127 10.7139 5.17742 10.8037 5.114C10.8935 5.05059 10.9635 4.96048 11.0045 4.85513C11.6536 3.18556 13.2018 2.14879 15.0455 2.14879C16.2024 2.15005 17.3116 2.63459 18.1297 3.49607C18.9478 4.35755 19.4079 5.52561 19.4091 6.74393C19.4091 12.0781 11.9918 16.8571 10.5 17.7636Z" fill="#F41919"/>
</g>
<defs>
<clipPath id="clip0_286_2210">
<rect width="20" height="20" fill="white" transform="translate(0.5)"/>
</clipPath>
</defs>
</svg>
