<svg width="15" height="13" viewBox="0 0 15 13" fill="none" xmlns="http://www.w3.org/2000/svg">
<path fill-rule="evenodd" clip-rule="evenodd" d="M4.21547 0.25C2.34739 0.25 0.833008 1.78193 0.833008 3.6708C0.833008 3.71944 0.844528 3.76397 0.846558 3.81193C0.845878 3.83865 0.839108 3.85784 0.839108 3.88524C0.839108 7.478 5.89856 12.1903 7.39533 12.7233L7.49967 12.75L7.60402 12.7233C9.10079 12.1903 14.1602 7.478 14.1602 3.88524C14.1602 3.85784 14.1535 3.83865 14.1528 3.81193C14.1548 3.76397 14.1663 3.71944 14.1663 3.6708C14.1663 1.78193 12.652 0.25 10.7839 0.25C9.2424 0.25 8.11565 2.05464 7.49967 2.05464C6.88369 2.05464 5.75695 0.25 4.21547 0.25Z" fill="#A1A6A6"/>
</svg>
