<svg width="52" height="10" viewBox="0 0 52 10" fill="none" xmlns="http://www.w3.org/2000/svg">
<g id="png_logo_sim" clip-path="url(#clip0_132_2960)">
<path id="Vector" d="M10.6312 2.44781C8.70661 2.44781 7.20264 3.76959 7.20264 5.45825V5.49226C7.20264 7.16634 8.69642 8.48083 10.6057 8.48083C12.515 8.48083 14.0368 7.15905 14.0368 5.47039V5.44853C14.0368 3.75987 12.5405 2.44781 10.6312 2.44781ZM12.3009 5.49226C12.3077 5.7008 12.2687 5.9084 12.1865 6.10176C12.1044 6.29513 11.9807 6.47002 11.8236 6.61525C11.6664 6.76047 11.4792 6.87283 11.2739 6.94513C11.0686 7.01743 10.8497 7.04809 10.6312 7.03514C10.4109 7.04301 10.1912 7.0083 9.9853 6.93311C9.77941 6.85791 9.59166 6.74378 9.43327 6.59759C9.2749 6.4514 9.14919 6.27617 9.06374 6.08246C8.97829 5.88873 8.93485 5.68053 8.93603 5.47039V5.44853C8.92962 5.24009 8.96881 5.03267 9.05114 4.83947C9.13346 4.64627 9.2571 4.47154 9.41417 4.32639C9.57126 4.18124 9.75835 4.06887 9.96348 3.99644C10.1686 3.924 10.3874 3.89308 10.6057 3.90565C10.826 3.89779 11.0457 3.93249 11.2516 4.00769C11.4575 4.08288 11.6453 4.19701 11.8036 4.34321C11.962 4.48939 12.0877 4.66462 12.1731 4.85834C12.2586 5.05206 12.302 5.26025 12.3009 5.47039V5.49226Z" fill="#0D0D0D"/>
<path id="Vector_2" d="M22.5025 2.44781C22.0873 2.4411 21.675 2.51462 21.2905 2.66394C20.9059 2.81325 20.5572 3.03527 20.2651 3.3166C19.973 3.59792 19.7438 3.93273 19.5912 4.30081C19.4387 4.66889 19.3658 5.06262 19.3773 5.45825V5.49226C19.3773 7.22223 20.7665 8.48083 22.6784 8.48083C23.1661 8.49985 23.652 8.41258 24.099 8.22564C24.5461 8.03869 24.9425 7.75701 25.258 7.40202L25.2733 7.38502L24.2231 6.53461L24.2078 6.54676C24.0113 6.7362 23.7764 6.88558 23.5174 6.98583C23.2585 7.08608 22.9808 7.13509 22.7013 7.1299C21.9366 7.1299 21.4064 6.76786 21.2126 6.11184L21.1948 6.04866H25.5537V6.02923C25.5537 5.8883 25.5767 5.73037 25.5767 5.59917C25.5843 3.26906 23.9223 2.44781 22.5025 2.44781ZM21.1718 5.00631L21.1846 4.94314C21.3631 4.21422 21.8805 3.80117 22.607 3.80117C22.9468 3.79169 23.2779 3.90396 23.5352 4.11582C23.7924 4.32768 23.9569 4.62375 23.9963 4.94557V5.00631H21.1718Z" fill="#0D0D0D"/>
<path id="Vector_3" d="M33.8227 2.54742C31.9007 2.54742 30.3942 3.86919 30.3942 5.55785V5.59187C30.3942 7.26595 31.8905 8.58043 33.7998 8.58043C35.709 8.58043 37.2284 7.25866 37.2284 5.57V5.54813C37.2284 3.85948 35.732 2.54742 33.8227 2.54742ZM35.4924 5.59187C35.4992 5.8004 35.4603 6.008 35.3781 6.20137C35.2959 6.39474 35.1723 6.56963 35.0151 6.71486C34.858 6.86008 34.6707 6.97244 34.4654 7.04473C34.2601 7.11704 34.0412 7.14769 33.8227 7.13474C33.6024 7.14262 33.3827 7.10791 33.1769 7.03271C32.971 6.95751 32.7832 6.84339 32.6248 6.6972C32.4665 6.551 32.3408 6.37577 32.2553 6.18206C32.1698 5.98834 32.1264 5.78014 32.1276 5.57V5.54813C32.1212 5.33949 32.1604 5.13185 32.2429 4.93846C32.3254 4.74509 32.4492 4.57023 32.6065 4.42505C32.764 4.27987 32.9513 4.16755 33.1568 4.09527C33.3622 4.02299 33.5812 3.99234 33.7998 4.00526C34.02 3.99738 34.2396 4.0321 34.4453 4.10732C34.6511 4.18254 34.8386 4.29671 34.9968 4.44294C35.155 4.58916 35.2804 4.76442 35.3656 4.95813C35.4508 5.15184 35.494 5.35998 35.4924 5.57V5.59187Z" fill="#0D0D0D"/>
<path id="Vector_4" d="M40.0887 0.535583H38.261V8.39817H40.0887V0.535583Z" fill="#0D0D0D"/>
<path id="Vector_5" d="M43.293 2.94104H41.478V8.3982H43.293V2.94104Z" fill="#0D0D0D"/>
<path id="Vector_6" d="M47.7232 2.44781C45.7986 2.44781 44.2947 3.76959 44.2947 5.45825V5.49226C44.2947 7.16634 45.7884 8.48083 47.6977 8.48083C49.607 8.48083 51.1263 7.15905 51.1263 5.47039V5.44853C51.1263 3.75987 49.6325 2.44781 47.7232 2.44781ZM49.3929 5.49226C49.3997 5.7008 49.3608 5.9084 49.2786 6.10176C49.1963 6.29513 49.0727 6.47002 48.9156 6.61525C48.7584 6.76047 48.5712 6.87283 48.3659 6.94513C48.1606 7.01743 47.9417 7.04809 47.7232 7.03514C47.5029 7.04301 47.2832 7.0083 47.0773 6.93311C46.8714 6.85791 46.6837 6.74378 46.5253 6.59759C46.3669 6.4514 46.2412 6.27617 46.1558 6.08246C46.0703 5.88873 46.0269 5.68053 46.028 5.47039V5.44853C46.0212 5.23999 46.0602 5.0324 46.1424 4.83903C46.2246 4.64566 46.3482 4.47077 46.5053 4.32555C46.6625 4.18032 46.8497 4.06797 47.055 3.99566C47.2603 3.92336 47.4793 3.8927 47.6977 3.90565C47.918 3.89779 48.1377 3.93249 48.3436 4.00769C48.5495 4.08288 48.7372 4.19701 48.8956 4.34321C49.054 4.48939 49.1797 4.66462 49.2652 4.85834C49.3507 5.05206 49.394 5.26025 49.3929 5.47039V5.49226Z" fill="#0D0D0D"/>
<path id="Vector_7" d="M17.3455 6.77512L17.3123 6.73138C17.2385 6.59083 17.2058 6.43382 17.2181 6.27702V4.04896H18.5207V2.67617H17.2181V1.11871H15.5407V2.67617H14.5211V4.04896H15.5407V6.72167C15.5407 7.93652 16.0633 8.46864 17.2946 8.46864C17.7795 8.49425 18.2641 8.41103 18.7093 8.22566V6.84558C17.9573 7.00351 17.4934 6.97921 17.3455 6.77512Z" fill="#0D0D0D"/>
<path id="Vector_8" d="M28.8753 0.38981C28.6098 0.380822 28.3451 0.422633 28.0969 0.512774C27.8487 0.602914 27.6218 0.739557 27.4299 0.914631C27.0935 1.22321 26.9201 1.697 26.9201 2.32144V2.67618H26.01V4.04898H26.9201V8.40791H28.7045V4.04898H30.1727V2.67861H28.6841V2.41377C28.6841 2.0809 28.9059 1.86708 29.3137 1.81363C29.605 1.78553 29.8992 1.80111 30.1855 1.85979V0.528304H30.1702C29.75 0.411857 29.3121 0.365012 28.8753 0.38981Z" fill="#0D0D0D"/>
<path id="Vector_9" d="M42.3829 2.18295C42.8968 2.18295 43.3134 1.78588 43.3134 1.29609C43.3134 0.806297 42.8968 0.409241 42.3829 0.409241C41.869 0.409241 41.4525 0.806297 41.4525 1.29609C41.4525 1.78588 41.869 2.18295 42.3829 2.18295Z" fill="#0D0D0D"/>
<path id="Vector_10" d="M3.72823 2.33355C3.11961 2.30959 2.52316 2.50082 2.05347 2.87053L1.9668 2.94342V2.51578H0.126343V8.40787H1.9668V5.24923C1.95121 5.07359 1.97346 4.89677 2.0322 4.72963C2.09095 4.56249 2.18493 4.40857 2.30838 4.27733C2.55755 4.05186 2.89022 3.92956 3.23371 3.93717C3.56269 3.93003 3.88386 4.03323 4.14119 4.22874C4.24684 4.33033 4.32855 4.45223 4.38086 4.5863C4.43317 4.72038 4.45487 4.86355 4.44453 5.00625V8.40787H6.32322V4.8143C6.34167 4.48307 6.28776 4.15179 6.16489 3.84146C6.04203 3.53113 5.8529 3.24848 5.60948 3.01145C5.09574 2.56553 4.42297 2.3231 3.72823 2.33355Z" fill="#0D0D0D"/>
</g>
<defs>
<clipPath id="clip0_132_2960">
<rect width="51" height="9" fill="white" transform="translate(0.126343 0.383362)"/>
</clipPath>
</defs>
</svg>
