<svg width="21" height="14" viewBox="0 0 21 14" fill="none" xmlns="http://www.w3.org/2000/svg">
<g id="png_sym" clip-path="url(#clip0_320_1075)">
<path id="Vector" d="M20.1665 6.93368L14.0916 0.550539C14.0699 0.528904 14.0411 0.516845 14.0111 0.516845C13.9812 0.516845 13.9524 0.528904 13.9306 0.550539L10.515 4.13946C10.427 4.21753 10.3156 4.26036 10.2003 4.26036C10.0851 4.26036 9.97364 4.21753 9.88564 4.13946L6.44564 0.519779C6.4239 0.498143 6.39508 0.486084 6.36513 0.486084C6.33518 0.486084 6.30637 0.498143 6.28463 0.519779L0.209801 6.90291C0.189211 6.92576 0.177734 6.95604 0.177734 6.9875C0.177734 7.01897 0.189211 7.04925 0.209801 7.07211L6.28463 13.4501C6.29421 13.4619 6.30622 13.4712 6.31973 13.4774C6.33326 13.4837 6.34795 13.4866 6.3627 13.486C6.37813 13.4864 6.39346 13.4833 6.40773 13.4772C6.42201 13.4709 6.43491 13.4618 6.44564 13.4501L9.89046 9.83048C9.9731 9.75509 10.0787 9.71326 10.1881 9.71252C10.3056 9.71535 10.4183 9.76269 10.5053 9.84581L13.9208 13.4347C13.9305 13.4465 13.9425 13.4559 13.9559 13.4621C13.9695 13.4683 13.9842 13.4712 13.9989 13.4707C14.0144 13.4709 14.0296 13.468 14.0439 13.4618C14.0582 13.4556 14.0711 13.4464 14.0818 13.4347L20.1567 7.05673C20.1685 7.03894 20.1756 7.01819 20.1774 6.99659C20.179 6.97498 20.1753 6.95327 20.1665 6.93368Z" fill="#A6A6A6"/>
</g>
<defs>
<clipPath id="clip0_320_1075">
<rect width="20" height="13" fill="white" transform="translate(0.177734 0.486084)"/>
</clipPath>
</defs>
</svg>
