<svg width="16" height="16" viewBox="0 0 16 16" fill="none" xmlns="http://www.w3.org/2000/svg">
<g clip-path="url(#clip0_42_247)">
<path d="M7.99995 2.30029C4.86577 2.30029 0.199951 5.5692 0.199951 7.97302C0.199951 10.3768 4.86577 13.6457 7.99995 13.6457C11.1341 13.6457 15.8 10.2988 15.8 7.97302C15.8 5.6472 11.1341 2.30029 7.99995 2.30029ZM7.99995 12.0573C5.74504 12.0573 3.91559 10.2279 3.91559 7.97302C3.91559 5.71811 5.74504 3.88865 7.99995 3.88865C10.2549 3.88865 12.0843 5.71811 12.0843 7.97302C12.0843 10.2279 10.2549 12.0573 7.99995 12.0573Z" fill="#7C8484"/>
<path d="M7.99994 5.61133C6.69522 5.61133 5.63867 6.66788 5.63867 7.9726C5.63867 9.27733 6.69522 10.3339 7.99994 10.3339C9.30467 10.3339 10.3612 9.27733 10.3612 7.9726C10.3612 6.66788 9.30467 5.61133 7.99994 5.61133Z" fill="#7C8484"/>
</g>
<defs>
<clipPath id="clip0_42_247">
<rect width="16" height="16" fill="white"/>
</clipPath>
</defs>
</svg>
