<svg width="15" height="16" viewBox="0 0 15 16" fill="none" xmlns="http://www.w3.org/2000/svg">
<g id="&#8;svg_view">
<path id="Vector" d="M7.49997 2.53955C4.56167 2.53955 0.187469 5.60415 0.187469 7.85774C0.187469 10.1113 4.56167 13.1759 7.49997 13.1759C10.4382 13.1759 14.8125 10.0382 14.8125 7.85774C14.8125 5.67728 10.4382 2.53955 7.49997 2.53955ZM7.49997 11.6868C5.38599 11.6868 3.67088 9.97172 3.67088 7.85774C3.67088 5.74376 5.38599 4.02864 7.49997 4.02864C9.61398 4.02864 11.329 5.74376 11.329 7.85774C11.329 9.97172 9.61398 11.6868 7.49997 11.6868Z" fill="#7C8484"/>
<path id="Vector_2" d="M7.49998 5.64417C6.2768 5.64417 5.28629 6.63468 5.28629 7.85786C5.28629 9.08104 6.2768 10.0715 7.49998 10.0715C8.72316 10.0715 9.71366 9.08104 9.71366 7.85786C9.71366 6.63468 8.72316 5.64417 7.49998 5.64417Z" fill="#7C8484"/>
</g>
</svg>
