<svg width="17" height="17" viewBox="0 0 17 17" fill="none" xmlns="http://www.w3.org/2000/svg">
<g clip-path="url(#clip0_103_5038)">
<path d="M8.49995 2.80005C5.36577 2.80005 0.699951 6.06896 0.699951 8.47278C0.699951 10.8766 5.36577 14.1455 8.49995 14.1455C11.6341 14.1455 16.3 10.7986 16.3 8.47278C16.3 6.14696 11.6341 2.80005 8.49995 2.80005ZM8.49995 12.5571C6.24504 12.5571 4.41559 10.7277 4.41559 8.47278C4.41559 6.21787 6.24504 4.38841 8.49995 4.38841C10.7549 4.38841 12.5843 6.21787 12.5843 8.47278C12.5843 10.7277 10.7549 12.5571 8.49995 12.5571Z" fill="#A1A6A6"/>
<path d="M8.49994 6.11157C7.19522 6.11157 6.13867 7.16812 6.13867 8.47284C6.13867 9.77757 7.19522 10.8341 8.49994 10.8341C9.80467 10.8341 10.8612 9.77757 10.8612 8.47284C10.8612 7.16812 9.80467 6.11157 8.49994 6.11157Z" fill="#A1A6A6"/>
</g>
<defs>
<clipPath id="clip0_103_5038">
<rect width="16" height="16" fill="white" transform="translate(0.5 0.5)"/>
</clipPath>
</defs>
</svg>
