<svg width="26" height="8" viewBox="0 0 26 8" fill="none" xmlns="http://www.w3.org/2000/svg">
<g id="icons_New" clip-path="url(#clip0_31_61)">
<path id="Vector" d="M7.39898 0.223145V8.00014H5.83998L2.68298 3.43514H2.62898V8.00014H0.802979V0.223145H2.38198L5.50798 4.78814H5.57198V0.223145H7.39898ZM8.55298 8.00014V0.223145H13.935V1.71614H10.379V3.35914H13.655V4.85314H10.38V6.50714H13.946V8.00014H8.55298ZM16.915 8.00014L14.67 0.223145H16.69L17.882 5.37914H17.946L19.3 0.223145H20.965L22.329 5.39014H22.383L23.586 0.223145H25.606L23.348 8.00014H21.587L20.17 3.20914H20.105L18.687 8.00014H16.915Z" fill="current"/>
</g>
<defs>
<clipPath id="clip0_31_61">
<rect width="26" height="8" fill="white"/>
</clipPath>
</defs>
</svg>
