<svg width="10" height="6" viewBox="0 0 10 6" fill="none" xmlns="http://www.w3.org/2000/svg">
<g id="icons_arrowdown_sm">
<path id="Vector" d="M4.63998 5.626C4.68663 5.67439 4.74254 5.71288 4.8044 5.73917C4.86625 5.76546 4.93277 5.77901 4.99998 5.77901C5.06719 5.77901 5.13371 5.76546 5.19557 5.73917C5.25742 5.71288 5.31334 5.67439 5.35998 5.626L8.51498 2.346C8.58274 2.27532 8.62825 2.1863 8.64587 2.08999C8.66349 1.99368 8.65245 1.89431 8.61411 1.80422C8.57578 1.71413 8.51183 1.63728 8.43021 1.58319C8.34859 1.52911 8.25289 1.50019 8.15498 1.5H1.84498C1.74687 1.5 1.65093 1.52886 1.56911 1.58299C1.48728 1.63712 1.42319 1.71413 1.38481 1.80442C1.34643 1.89471 1.33547 1.9943 1.35328 2.09078C1.37109 2.18726 1.4169 2.27636 1.48498 2.347L4.63998 5.626Z" fill="#2C3030"/>
</g>
</svg>
