<svg width="24" height="24" viewBox="0 0 24 24" fill="none" xmlns="http://www.w3.org/2000/svg">
<g id="icons_Search">
<path id="Vector" d="M21.85 21.0701L17 16.1401C18.3444 14.5963 19.0834 12.6173 19.08 10.5701C19.0867 8.60207 18.4166 6.69151 17.182 5.15879C15.9475 3.62607 14.2235 2.56437 12.2991 2.15169C10.3748 1.73901 8.36709 2.00044 6.6126 2.89215C4.85811 3.78385 3.46351 5.25163 2.66261 7.04939C1.86171 8.84715 1.70321 10.8656 2.21367 12.7663C2.72414 14.6671 3.87253 16.3345 5.46633 17.4892C7.06013 18.6438 9.00243 19.2154 10.9676 19.1082C12.9328 19.001 14.8013 18.2214 16.26 16.9001L21.08 21.8201C21.1821 21.918 21.3186 21.9718 21.46 21.9701C21.5643 21.9702 21.6663 21.9396 21.7533 21.882C21.8402 21.8244 21.9082 21.7424 21.9488 21.6463C21.9894 21.5502 22.0007 21.4443 21.9813 21.3418C21.962 21.2393 21.9128 21.1448 21.84 21.0701H21.85ZM3.06 10.5701C3.06 9.08876 3.49928 7.64065 4.32229 6.40892C5.1453 5.1772 6.31508 4.21719 7.6837 3.65029C9.05232 3.08339 10.5583 2.93506 12.0112 3.22406C13.4641 3.51307 14.7987 4.22642 15.8462 5.27391C16.8937 6.32141 17.6071 7.656 17.8961 9.10892C18.1851 10.5618 18.0368 12.0678 17.4699 13.4364C16.903 14.8051 15.9429 15.9748 14.7112 16.7979C13.4795 17.6209 12.0314 18.0601 10.55 18.0601C8.56434 18.0575 6.66077 17.2675 5.25669 15.8635C3.85262 14.4594 3.06264 12.5558 3.06 10.5701Z" fill="#231F20"/>
</g>
</svg>
