<svg width="120" height="21" viewBox="0 0 120 21" fill="none" xmlns="http://www.w3.org/2000/svg">
<g id="png_logo" clip-path="url(#clip0_316_812)">
<path id="Vector" d="M0 0.0344238H120V20.0344H0V0.0344238Z" fill="white" fill-opacity="0.01"/>
<path id="Vector_2" d="M46.5662 5.84717C43.1759 5.84717 40.5186 8.29725 40.5186 11.4274V11.4679C40.5186 14.5756 43.1579 17.0076 46.5257 17.0076C49.8935 17.0076 52.5733 14.5575 52.5733 11.4274V11.3868C52.5733 8.27924 49.9339 5.84717 46.5662 5.84717ZM49.5113 11.4679C49.5113 13.1523 48.3018 14.3278 46.5662 14.3278C44.8306 14.3278 43.5761 13.0803 43.5761 11.4274V11.3868C43.5761 9.70245 44.7856 8.52695 46.5212 8.52695C48.2568 8.52695 49.5113 9.77451 49.5113 11.4274V11.4679Z" fill="#161C1C"/>
<path id="Vector_3" d="M67.5057 5.84717C64.3628 5.84717 61.9932 8.24771 61.9932 11.4274V11.4679C61.9932 14.6791 64.4392 17.0076 67.8115 17.0076C69.7179 17.0076 71.2512 16.3365 72.3618 15.0079L72.3888 14.9764L70.5363 13.4001L70.5093 13.4226C69.637 14.2017 68.8906 14.5035 67.8519 14.5035C66.4985 14.5035 65.5678 13.8324 65.2261 12.6164L65.1946 12.4993H72.8834V12.4633C72.9059 12.2065 72.9283 11.9138 72.9283 11.6661C72.9283 7.37397 70.0057 5.84717 67.5012 5.84717H67.5057ZM65.1586 10.5852L65.1856 10.4726C65.5003 9.12596 66.4131 8.3513 67.6946 8.3513C68.976 8.3513 69.8933 9.14397 70.1451 10.4771L70.1631 10.5897H65.1586V10.5852Z" fill="#161C1C"/>
<path id="Vector_4" d="M87.6453 5.84717C84.255 5.84717 81.5977 8.29725 81.5977 11.4274V11.4679C81.5977 14.5756 84.237 17.0076 87.6048 17.0076C90.9726 17.0076 93.6524 14.5575 93.6524 11.4274V11.3868C93.6524 8.27924 91.0131 5.84717 87.6453 5.84717ZM90.5904 11.4679C90.5904 13.1523 89.3809 14.3278 87.6453 14.3278C85.9097 14.3278 84.6552 13.0803 84.6552 11.4274V11.3868C84.6552 9.70245 85.8647 8.52695 87.6003 8.52695C89.3359 8.52695 90.5904 9.77451 90.5904 11.4274V11.4679Z" fill="#161C1C"/>
<path id="Vector_5" d="M98.5261 2.30249H95.3022V16.8768H98.5261V2.30249Z" fill="#161C1C"/>
<path id="Vector_6" d="M104.178 6.76123H100.977V16.8768H104.178V6.76123Z" fill="#161C1C"/>
<path id="Vector_7" d="M111.993 5.84717C108.603 5.84717 105.945 8.29725 105.945 11.4274V11.4679C105.945 14.5756 108.585 17.0076 111.952 17.0076C115.32 17.0076 118 14.5575 118 11.4274V11.3868C118 8.27924 115.361 5.84717 111.993 5.84717ZM114.938 11.4679C114.938 13.1523 113.729 14.3278 111.993 14.3278C110.257 14.3278 109.003 13.0803 109.003 11.4274V11.3868C109.003 9.70245 110.212 8.52695 111.948 8.52695C113.684 8.52695 114.938 9.77451 114.938 11.4274V11.4679Z" fill="#161C1C"/>
<path id="Vector_8" d="M58.4098 13.8682L58.3514 13.7871C58.2884 13.6835 58.185 13.4358 58.185 12.9449V8.81493H60.4782V6.27478H58.1805V3.39233H55.2174V6.27027H53.4009V8.81043H55.2174V13.7736C55.2174 16.0435 56.1437 17.0119 58.3109 17.0119C59.3855 17.0119 60.2758 16.8497 60.8109 16.557H60.8289V13.9988C59.48 14.2916 58.6661 14.2465 58.4008 13.8682H58.4098Z" fill="#161C1C"/>
<path id="Vector_9" d="M78.7468 2.03678C77.6182 2.07282 76.8808 2.35205 76.2018 3.00511C75.6038 3.5816 75.3026 4.45534 75.3026 5.61282V6.26587H73.6929V8.81053H75.3026V16.8724H78.432V8.81504H81.022V6.27488H78.3916V5.78396C78.3916 5.16694 78.7873 4.7706 79.5067 4.67152C80.0417 4.60396 80.7027 4.68053 81.0444 4.75709V2.289L81.0175 2.27999C80.388 2.08633 79.691 2.00976 78.7558 2.04129L78.7468 2.03678Z" fill="#161C1C"/>
<path id="Vector_10" d="M102.573 5.35614C103.479 5.35614 104.214 4.62015 104.214 3.71225C104.214 2.80435 103.479 2.06836 102.573 2.06836C101.666 2.06836 100.932 2.80435 100.932 3.71225C100.932 4.62015 101.666 5.35614 102.573 5.35614Z" fill="#161C1C"/>
<path id="Vector_11" d="M34.3901 5.6355C33.1896 5.6355 32.1959 5.97329 31.4315 6.63535L31.2786 6.77047V5.97779H28.0322V16.8815H31.2786V11.013C31.2786 10.2114 31.4809 9.61238 31.8811 9.22505C32.3083 8.8107 32.8748 8.59451 33.5178 8.59451C34.1608 8.59451 34.7588 8.80619 35.1185 9.13948C35.4737 9.46375 35.6491 9.95016 35.6491 10.5807V16.8905H38.9674V10.2474C38.9674 8.83772 38.5447 7.71627 37.7039 6.90558C36.8721 6.10841 35.6626 5.64902 34.3856 5.64902L34.3901 5.6355Z" fill="#161C1C"/>
<path id="Vector_12" d="M20.766 8.27465C20.7481 8.24763 20.7121 8.22961 20.6671 8.22961H14.2643C13.8596 8.22961 13.6932 8.03595 13.8596 7.65763L15.9684 2.87457C15.9864 2.83404 15.9864 2.7935 15.9684 2.76648C15.9504 2.73495 15.9145 2.72144 15.8695 2.72144H5.41993C5.3345 2.72144 5.24008 2.7845 5.2041 2.86106L1.01349 12.3686C0.995504 12.4091 0.995504 12.4497 1.01349 12.4812C1.03147 12.5082 1.06745 12.5262 1.11241 12.5262H7.5647C7.94689 12.5262 8.11775 12.6749 7.94239 13.0577L5.81561 17.8768C5.79763 17.9173 5.79763 17.9578 5.81561 17.9894C5.8336 18.0164 5.86957 18.0344 5.91453 18.0344H16.3641C16.4046 18.0344 16.4495 18.0209 16.49 17.9939C16.5305 17.9668 16.5619 17.9308 16.5754 17.8948L20.766 8.38725C20.784 8.34671 20.784 8.30618 20.766 8.27465Z" fill="#1ECAD3"/>
</g>
<defs>
<clipPath id="clip0_316_812">
<rect width="120" height="20" fill="white" transform="translate(0 0.0344238)"/>
</clipPath>
</defs>
</svg>
