<svg width="35" height="10" viewBox="0 0 35 10" fill="none" xmlns="http://www.w3.org/2000/svg">
<g id="png_loud" clip-path="url(#clip0_132_2962)">
<path id="Vector" d="M0.177734 0.51123V9.13242L6.50561 9.14595V7.11326L2.36656 7.10649V0.514612L0.177734 0.51123Z" fill="#A6A6A6"/>
<path id="Vector_2" d="M6.90967 4.83706C6.90967 7.33988 8.88852 9.30155 11.4145 9.30832C13.9406 9.31508 15.9417 7.34665 15.9417 4.8303V4.80324C15.9417 2.30042 13.9629 0.338752 11.4368 0.331988C8.91078 0.325223 6.90967 2.29366 6.90967 4.81001V4.83706ZM9.13667 4.78971C9.1267 4.46887 9.1782 4.14923 9.28806 3.85021C9.39792 3.5512 9.56383 3.27906 9.77574 3.05033C9.98758 2.82161 10.241 2.64108 10.5205 2.51973C10.8001 2.39837 11.1 2.33871 11.4019 2.34439C11.7065 2.341 12.0086 2.40326 12.2899 2.52739C12.5713 2.65151 12.8261 2.83494 13.039 3.06662C13.2519 3.29829 13.4184 3.57341 13.5285 3.87536C13.6386 4.17732 13.6901 4.49986 13.6798 4.82353V4.85059C13.6879 5.16829 13.6358 5.48448 13.5265 5.78031C13.4172 6.07614 13.253 6.34555 13.0437 6.57248C12.8344 6.79941 12.5842 6.97922 12.3082 7.10118C12.0321 7.22315 11.7357 7.28477 11.4368 7.28238C11.1326 7.28245 10.8315 7.21801 10.551 7.09285C10.2706 6.96769 10.0164 6.78432 9.80342 6.55347C9.59042 6.32262 9.42286 6.04892 9.31056 5.7484C9.19825 5.44787 9.14347 5.12655 9.14939 4.80324L9.13667 4.78971Z" fill="#A6A6A6"/>
<path id="Vector_3" d="M20.9526 9.33197C22.7278 9.33197 24.8466 8.65553 24.8466 5.34437V0.55181H22.6547V5.41878C22.6547 6.64989 22.0597 7.32633 20.9749 7.32633C19.89 7.32633 19.3077 6.60254 19.3077 5.34775V0.545044H17.1189V5.39848C17.1189 7.9588 18.4424 9.32858 20.9526 9.33197Z" fill="#A6A6A6"/>
<path id="Vector_4" d="M32.921 8.0163C33.3339 7.61994 33.6602 7.13246 33.8773 6.58797C34.0944 6.04348 34.1969 5.45513 34.1777 4.86411V4.83705C34.1971 4.25472 34.0958 3.67498 33.8807 3.13898C33.6658 2.60298 33.3425 2.12385 32.9338 1.73558C32.1129 0.974593 30.939 0.572109 29.536 0.568726H26.3164V9.18992H29.4979C30.904 9.19331 32.0906 8.78744 32.921 8.0163ZM28.467 2.52701H29.5582C31.079 2.52701 32.0207 3.43006 32.0207 4.87087V4.91484C32.0207 6.34889 31.0663 7.2384 29.5582 7.23502H28.467V2.52701Z" fill="#A6A6A6"/>
</g>
<defs>
<clipPath id="clip0_132_2962">
<rect width="34" height="9" fill="white" transform="translate(0.177734 0.33197)"/>
</clipPath>
</defs>
</svg>
